<svg width="172" height="23" viewBox="0 0 172 23" fill="none" xmlns="http://www.w3.org/2000/svg">
<path d="M170.578 18.2735L167.663 16.5892V19.9566L170.578 18.2735Z" fill="#D82400"/>
<path d="M164.747 18.2735L167.662 19.9566V16.5892L164.747 18.2735Z" fill="#F73603"/>
<path d="M172 16.5871L171.419 14.4186L170.578 14.9041L172 16.5871Z" fill="#DD5298"/>
<path d="M170.574 18.2733L169.828 20.3478L171.415 18.7589L170.574 18.2733Z" fill="#3E1EE6"/>
<path d="M171.419 18.7591L172 16.5892L170.578 18.2735L171.419 18.7591Z" fill="#624BEE"/>
<path d="M167.662 13.2224L164.747 14.9054L167.662 16.5884V13.2224Z" fill="#FF8F08"/>
<path d="M170.578 18.2716V14.9042L167.663 16.5872L170.578 18.2716Z" fill="#F73603"/>
<path d="M164.747 14.9042V18.2716L167.662 16.5886L164.747 14.9042Z" fill="#FF6700"/>
<path d="M167.663 20.9262L169.833 20.3452L167.663 19.9537V20.9262Z" fill="#024D59"/>
<path d="M170.574 14.9017L171.415 14.4161L169.828 12.8272L170.574 14.9017Z" fill="#FFBA0D"/>
<path d="M170.578 14.9054L167.663 13.2224V16.5898L170.578 14.9054Z" fill="#FF6700"/>
<path d="M163.905 14.4186L163.323 16.5871L164.747 14.9041L163.905 14.4186Z" fill="#FFBA0D"/>
<path d="M167.662 19.9537L165.492 20.3452L167.662 20.9262V19.9537Z" fill="#098979"/>
<path d="M164.744 14.9017L165.49 12.8272L163.902 14.4161L164.744 14.9017Z" fill="#FFD60B"/>
<path d="M167.662 12.249L165.492 12.83L167.662 13.2215V12.249Z" fill="#FFD60B"/>
<path d="M163.323 16.5892L163.904 18.7591L164.745 18.2735L163.323 16.5892Z" fill="#FFBA0D"/>
<path d="M164.744 18.2733L163.902 18.7589L165.49 20.3478L164.744 18.2733Z" fill="#22DDB9"/>
<path d="M169.833 12.83L167.663 12.249V13.2215L169.833 12.83Z" fill="#FFBA0D"/>
<path d="M167.663 19.9563L169.833 20.3478L170.578 18.2733L167.663 19.9563Z" fill="#624BEE"/>
<path d="M164.747 18.2733L165.493 20.3478L167.662 19.9563L164.747 18.2733Z" fill="#0EAA7D"/>
<path d="M170.578 14.9017L169.833 12.8272L167.663 13.2186L170.578 14.9017Z" fill="#FF9B0B"/>
<path d="M170.578 14.9042V18.2716L172 16.5886L170.578 14.9042Z" fill="#CE2874"/>
<path d="M167.662 13.2186L165.493 12.8272L164.747 14.9017L167.662 13.2186Z" fill="#FFBA0D"/>
<path d="M164.745 18.2716V14.9042L163.323 16.5872L164.745 18.2716Z" fill="#FF9B0B"/>
<path d="M104.556 5.57821L103.095 6.10672C102.811 5.25297 102.162 3.91137 101.655 2.91534L103.055 2.46813C103.623 3.46417 104.252 4.74479 104.556 5.57821ZM104.495 11.5341L105.165 11.839C104.962 13.5059 104.617 14.9898 104.171 16.2704C105.185 18.547 107.113 18.9536 109.771 18.9536C111.069 18.9536 112.916 18.8926 114.214 18.7503C113.991 19.1569 113.768 19.9293 113.707 20.3968C112.53 20.4781 111.029 20.5188 109.71 20.5188C106.788 20.5188 104.8 20.0309 103.481 17.7949C102.852 19.1162 102.04 20.1326 101.107 20.844C100.884 20.4781 100.336 19.8683 100.011 19.6244C101.695 18.3844 102.872 16.2297 103.44 13.1603H102.933C102.588 13.1603 102.02 13.2823 101.858 13.4652C101.797 13.0993 101.513 12.4895 101.33 12.1033C101.391 12.4895 101.411 12.8147 101.411 13.1603C101.411 14.2783 101.188 15.1727 100.661 15.5793C100.397 15.7825 100.052 15.9045 99.6664 15.9451C99.3215 15.9858 98.8751 16.0061 98.449 16.0061C98.4287 15.5589 98.307 14.9491 98.0838 14.5426C98.449 14.5629 98.7736 14.5629 99.0374 14.5629C99.2606 14.5629 99.4229 14.5019 99.5852 14.3799C99.8287 14.1563 99.9505 13.6278 99.9302 12.9774C99.9302 11.9407 99.6461 10.5584 98.449 8.97287C98.9157 7.63127 99.3621 5.98476 99.707 4.64316H97.6577V20.7424H96.1562V2.93566H100.295L100.539 2.87468L101.614 3.4845C101.107 5.15134 100.478 7.16374 99.8896 8.81026C100.742 9.94859 101.148 11.0259 101.31 11.961C101.594 11.8797 101.817 11.778 102.02 11.3715C102.243 11.0259 102.75 9.60302 103.177 8.38338H101.31V6.7572H103.765L104.11 6.61491L105.206 6.91982L105.064 7.28571C105.855 6.61491 106.524 5.76116 107.011 4.76512H104.779V3.50483H107.559C107.742 3.0373 107.864 2.54944 107.985 2.04126L109.426 2.28519C109.324 2.71206 109.223 3.09828 109.081 3.50483H113.869V4.76512H108.614C108.472 5.13101 108.31 5.45625 108.107 5.80181H113.2V6.89949H110.907V8.28174H113.727V9.37942H106.261V8.28174H109.284V6.89949H107.701V6.47261C107.113 7.36702 106.423 8.13945 105.632 8.7696C105.469 8.546 105.124 8.13945 104.861 7.83454C104.435 9.01353 103.907 10.4974 103.42 11.5951H104.232L104.495 11.5341ZM107.945 12.5708L108.635 11.6358C109.568 12.0626 110.603 12.6115 111.191 12.9977L110.481 14.0954C109.893 13.6685 108.817 12.9774 107.945 12.5708ZM107.701 11.3308V13.018C107.701 13.6075 107.681 14.2783 107.579 14.9491C108.635 14.7458 110.035 14.4003 111.516 14.0344V11.3308H107.701ZM112.956 10.1925V16.7786C112.956 17.4697 112.835 17.7949 112.348 17.9982C111.901 18.2015 111.191 18.2015 110.116 18.2015C110.055 17.8356 109.852 17.3681 109.69 17.0225C110.379 17.0428 111.069 17.0428 111.232 17.0428C111.455 17.0428 111.516 16.9818 111.516 16.7786V15.2134C110.298 15.6402 109.101 16.0265 108.026 16.372L107.559 15.132C107.397 16.2094 107.052 17.2867 106.423 18.1202C106.159 17.8762 105.53 17.4697 105.206 17.3071C106.179 16.0468 106.281 14.319 106.281 12.9774V10.1925H112.956Z" fill="#2A2C68"/>
<path d="M122.858 5.90345V14.6645C122.858 15.2947 122.777 15.8029 122.391 16.0874C122.026 16.372 121.559 16.4127 120.869 16.4127C120.829 15.9858 120.626 15.254 120.403 14.8271C120.829 14.8475 121.174 14.8475 121.295 14.8475C121.437 14.8271 121.478 14.7865 121.478 14.6239V7.59062H120.281V20.8034H118.698V7.59062H117.603V16.6363H116.182V5.90345H118.698V2.16322H120.281V5.90345H122.858ZM132.293 13.2213L133.693 14.4003C132.779 15.0914 131.765 15.8232 130.893 16.3923C131.887 17.4697 133.064 18.4047 134.342 18.9536C133.936 19.3195 133.368 20.0106 133.104 20.4781C130.345 19.0755 128.194 16.2094 126.956 12.9367H125.901V18.4047L128.924 17.4494C128.924 17.9372 128.965 18.6283 129.046 19.0146C125.211 20.3358 124.562 20.6001 124.197 20.905C124.055 20.4375 123.608 19.5837 123.304 19.1975C123.629 18.9536 124.116 18.4251 124.116 17.5917V12.9367H123.243V11.3308H124.562V3.0373H133.51V4.54152H126.388V5.84247H132.698V7.2044H126.388V8.546H132.8V9.94859H126.388V11.3308H134.037V12.9367H128.64C128.985 13.7701 129.452 14.5629 129.979 15.2947C130.811 14.6645 131.724 13.8514 132.293 13.2213Z" fill="#2A2C68"/>
<path d="M141.646 13.5668V2.44781H143.513V20.8034H141.646V15.3963C138.177 16.6159 137.548 16.9615 137.122 17.2867C137 16.8192 136.655 15.9858 136.391 15.5589C136.695 15.3556 137.101 14.9898 137.101 14.1767V4.35857H138.948V14.4206L141.646 13.5668ZM147.409 7.75323L147.246 8.18011C147.774 10.2332 148.504 12.1643 149.458 13.8514C150.33 12.1439 150.919 10.1112 151.304 7.75323H147.409ZM154.551 7.75323H153.191C152.643 10.8633 151.832 13.4449 150.574 15.5793C151.71 17.1241 153.09 18.3438 154.733 19.1772C154.287 19.5024 153.719 20.2139 153.414 20.7017C151.893 19.8277 150.594 18.6283 149.498 17.1851C148.342 18.6487 146.922 19.8683 145.136 20.844C144.933 20.4375 144.304 19.6447 143.939 19.2788C145.846 18.3641 147.307 17.1241 148.443 15.5386C147.551 14.014 146.82 12.2659 146.232 10.3755C145.826 11.1682 145.359 11.8594 144.872 12.4488C144.608 12.0626 143.959 11.2292 143.553 10.843C145.258 8.83058 146.293 5.57821 146.84 2.12257L148.768 2.44781C148.565 3.64712 148.301 4.8261 147.977 5.96443H154.551V7.75323Z" fill="#2A2C68"/>
<rect x="91.001" y="2.29681" width="0.551656" height="18.592" fill="#2A2C68"/>
<path fill-rule="evenodd" clip-rule="evenodd" d="M77.7854 9.34247C78.3028 11.7307 79.2342 13.9736 80.4347 16.0711H78.22C77.1851 13.9113 76.3365 11.7099 75.819 9.34247H77.7854ZM71.1367 2.04163H73.5354C73.3806 2.43174 73.2206 2.84611 73.0552 3.27427L73.0551 3.27438C72.3578 5.07979 71.5657 7.13025 70.679 8.641H71.3828V20.9052H69.2531V9.36786H67.618C69.2531 7.3119 70.2674 4.51293 71.1367 2.04163ZM82.1821 12.5401V16.3017C82.1821 18.3404 80.8005 18.7771 78.9277 18.7771V20.9047H79.2319C82.3925 20.9047 84.1022 19.2871 84.1022 16.3022V12.5406V7.77925H86.4035V5.90443H84.1022V2.15647H82.1821V5.90443H72.8922V7.77925H82.1821V8.50203V12.5401ZM44.0952 8.46195H36.385C37.1861 11.9726 39.5112 16.1481 44.716 18.5688L43.5696 20.6141C39.2687 18.8057 36.65 15.1098 35.3844 11.5616C34.5397 14.948 32.7475 18.444 27.0816 20.6141L26.0303 18.617C32.0157 16.3031 33.3794 12.3299 34.0705 8.46195H26.6277V6.26987H34.1781V2.15432H36.3769V6.26987H44.0952V8.46195ZM62.8198 10.2284H60.847V4.40627H47.5919V2.44067H64.8402V4.40627H62.8198V10.2284ZM58.5142 5.32744V9.65396H48.7401V5.32744H58.5142ZM56.5244 6.95599H50.7294V8.02586H56.5244V6.95599ZM46.4379 12.6771H60.7127V16.4387C60.7127 18.4774 59.2826 18.9141 57.3442 18.9141V20.9041H57.6591C60.9305 20.9041 62.7001 19.4241 62.7001 16.4392V12.6776H65.1237V10.8089H46.4379V12.6771ZM58.5142 13.6948H48.7401V18.5981H58.5142V13.6948ZM56.5642 16.8105H50.6902V15.4824H56.5642V16.8105Z" fill="#2A2C68"/>
<path d="M13.6411 13.6397V9.32687L9.91576 7.17047L6.19043 9.32687V13.6397L9.91576 15.7936L13.6411 13.6397Z" fill="#FF8F08"/>
<path d="M19.8113 17.2001L16.9476 15.5442L9.93262 19.6018V22.9186L19.8113 17.2001Z" fill="#D82400"/>
<path d="M9.92517 19.6002L5.38477 16.9752V20.2895L9.92517 22.917V19.6002Z" fill="#F73603"/>
<path d="M2.91258 18.8585V15.5442L0.0488281 17.2001L2.91258 18.8585Z" fill="#F73603"/>
<path d="M0.0488281 5.76683L2.91503 7.42767V7.42522L9.93001 3.36511V0.0507812L0.0488281 5.76683Z" fill="#FF8F08"/>
<path d="M19.7954 5.76953L16.9316 7.42792V15.5457L19.7954 17.2016V5.76953Z" fill="#F73603"/>
<path d="M0.0488281 17.1996L2.91258 15.5436V7.4234L0.0488281 5.76501V17.1996Z" fill="#FF6700"/>
<path d="M9.93262 0.0507812V3.36511L16.9476 7.42522L19.8113 5.76683L9.93262 0.0507812Z" fill="#FF6700"/>
</svg>
